<?xml version="1.0" standalone="no"?>
<!DOCTYPE svg PUBLIC "-//W3C//DTD SVG 20010904//EN"
 "http://www.w3.org/TR/2001/REC-SVG-20010904/DTD/svg10.dtd">
<svg version="1.0" xmlns="http://www.w3.org/2000/svg"
 width="512.000000pt" height="512.000000pt" viewBox="0 0 512.000000 512.000000"
 preserveAspectRatio="xMidYMid meet">
<metadata>
Created by potrace 1.14, written by Peter Selinger 2001-2017
</metadata>
<g transform="translate(0.000000,512.000000) scale(0.100000,-0.100000)"
fill="#000000" stroke="none">
<path d="M2446 4334 c-22 -8 -54 -26 -73 -40 -77 -59 -189 -222 -227 -330
l-12 -36 -110 1 c-192 3 -303 -25 -377 -97 -90 -87 -119 -214 -77 -340 25 -74
69 -165 107 -223 l24 -37 -26 -38 c-69 -101 -125 -252 -125 -338 0 -122 82
-243 192 -284 75 -28 226 -46 320 -37 62 5 78 4 78 -7 0 -20 65 -152 102 -206
52 -77 101 -132 136 -153 l32 -21 0 -311 0 -312 -32 40 c-299 370 -714 564
-1158 541 -218 -11 -310 -42 -384 -127 -72 -85 -84 -207 -36 -384 100 -374
394 -635 854 -760 229 -62 298 -68 841 -72 536 -4 637 1 845 43 549 110 887
390 991 821 30 122 30 225 0 283 -50 98 -134 158 -252 181 -103 20 -396 17
-504 -5 -301 -63 -579 -229 -787 -471 l-73 -85 -3 308 -3 307 23 15 c35 22 96
89 140 153 40 59 108 193 108 213 0 8 29 10 98 6 172 -8 312 24 384 87 99 87
132 220 88 350 -23 70 -81 190 -112 234 l-20 28 25 38 c39 58 82 149 107 225
42 127 13 251 -77 338 -74 72 -185 100 -377 97 l-110 -1 -12 33 c-55 161 -198
338 -301 373 -57 20 -174 20 -227 0z m162 -327 c63 -81 93 -155 101 -252 5
-51 15 -94 25 -110 42 -65 132 -83 216 -43 80 37 320 38 320 1 0 -38 -83 -185
-136 -242 -94 -102 -94 -156 -1 -258 62 -69 144 -220 134 -247 -14 -37 -229
-33 -318 6 -66 28 -130 29 -166 1 -52 -38 -67 -69 -74 -155 -8 -92 -52 -194
-113 -263 l-36 -40 -36 40 c-62 69 -104 170 -113 267 -9 97 -29 135 -85 162
-48 23 -87 20 -159 -11 -53 -23 -76 -27 -162 -27 -55 -1 -113 3 -128 7 -25 7
-28 11 -22 35 15 60 69 155 119 209 68 74 76 91 76 152 0 48 -3 54 -60 117
-63 69 -147 222 -137 249 14 36 240 32 322 -5 60 -28 113 -29 156 -4 55 33 71
64 80 159 6 66 15 103 38 149 30 62 97 156 111 156 4 0 26 -24 48 -53z m-1058
-2230 c263 -69 496 -244 668 -501 65 -96 122 -195 122 -211 0 -11 -230 -4
-340 9 -209 27 -367 69 -503 136 -242 120 -380 293 -415 522 l-9 58 31 5 c17
2 42 7 56 9 14 3 86 3 160 1 102 -3 158 -10 230 -28z m2496 21 c16 -11 -6
-124 -40 -209 -130 -319 -508 -507 -1059 -526 l-169 -6 30 60 c17 33 57 100
90 149 200 297 450 473 757 533 56 11 374 10 391 -1z"/>
<path d="M2502 3451 c-132 -34 -203 -199 -139 -322 84 -159 312 -157 395 2 27
54 32 137 9 190 -16 40 -67 93 -106 114 -36 18 -117 26 -159 16z"/>
</g>
</svg>
