<svg xmlns="http://www.w3.org/2000/svg" xmlns:xlink="http://www.w3.org/1999/xlink">
  <defs>
    <symbol id="feedback-line" viewBox="0 0 24 24"><path fill="none" d="M0 0h24v24H0z"></path><path d="M6.45455 19L2 22.5V4C2 3.44772 2.44772 3 3 3H21C21.5523 3 22 3.44772 22 4V18C22 18.5523 21.5523 19 21 19H6.45455ZM4 18.3851L5.76282 17H20V5H4V18.3851ZM11 13H13V15H11V13ZM11 7H13V12H11V7Z"></path></symbol>
    
    <symbol id="error-warning-line" viewBox="0 0 24 24"><path fill="none" d="M0 0h24v24H0z"></path><path d="M12 22C6.47715 22 2 17.5228 2 12C2 6.47715 6.47715 2 12 2C17.5228 2 22 6.47715 22 12C22 17.5228 17.5228 22 12 22ZM12 20C16.4183 20 20 16.4183 20 12C20 7.58172 16.4183 4 12 4C7.58172 4 4 7.58172 4 12C4 16.4183 7.58172 20 12 20ZM11 15H13V17H11V15ZM11 7H13V13H11V7Z"></path></symbol>
    <symbol id="link" viewBox="0 0 24 24"><path fill="none" d="M0 0h24v24H0z"></path><path d="M18.3643 15.5353L16.95 14.1211L18.3643 12.7069C20.3169 10.7543 20.3169 7.58847 18.3643 5.63585C16.4116 3.68323 13.2458 3.68323 11.2932 5.63585L9.87898 7.05007L8.46477 5.63585L9.87898 4.22164C12.6127 1.48797 17.0448 1.48797 19.7785 4.22164C22.5121 6.95531 22.5121 11.3875 19.7785 14.1211L18.3643 15.5353ZM15.5358 18.3638L14.1216 19.778C11.388 22.5117 6.9558 22.5117 4.22213 19.778C1.48846 17.0443 1.48846 12.6122 4.22213 9.87849L5.63634 8.46428L7.05055 9.87849L5.63634 11.2927C3.68372 13.2453 3.68372 16.4112 5.63634 18.3638C7.58896 20.3164 10.7548 20.3164 12.7074 18.3638L14.1216 16.9496L15.5358 18.3638ZM14.8287 7.75717L16.2429 9.17139L9.17187 16.2425L7.75766 14.8282L14.8287 7.75717Z"></path></symbol>
    <symbol id="more-line" viewBox="0 0 24 24"><path fill="none" d="M0 0h24v24H0z"></path><path d="M12 3C11.175 3 10.5 3.675 10.5 4.5C10.5 5.325 11.175 6 12 6C12.825 6 13.5 5.325 13.5 4.5C13.5 3.675 12.825 3 12 3ZM12 18C11.175 18 10.5 18.675 10.5 19.5C10.5 20.325 11.175 21 12 21C12.825 21 13.5 20.325 13.5 19.5C13.5 18.675 12.825 18 12 18ZM12 10.5C11.175 10.5 10.5 11.175 10.5 12C10.5 12.825 11.175 13.5 12 13.5C12.825 13.5 13.5 12.825 13.5 12C13.5 11.175 12.825 10.5 12 10.5Z"></path></symbol>
    <symbol id="more-fill" viewBox="0 0 24 24"><path d="M12 3C10.9 3 10 3.9 10 5C10 6.1 10.9 7 12 7C13.1 7 14 6.1 14 5C14 3.9 13.1 3 12 3ZM12 17C10.9 17 10 17.9 10 19C10 20.1 10.9 21 12 21C13.1 21 14 20.1 14 19C14 17.9 13.1 17 12 17ZM12 10C10.9 10 10 10.9 10 12C10 13.1 10.9 14 12 14C13.1 14 14 13.1 14 12C14 10.9 13.1 10 12 10Z"></path></symbol>

<!-- Tabbar -->
<symbol id="home-line" viewBox="0 0 24 24"><path d="M23.121,9.069,15.536,1.483a5.008,5.008,0,0,0-7.072,0L.879,9.069A2.978,2.978,0,0,0,0,11.19v9.817a3,3,0,0,0,3,3H21a3,3,0,0,0,3-3V11.19A2.978,2.978,0,0,0,23.121,9.069ZM15,22.007H9V18.073a3,3,0,0,1,6,0Zm7-1a1,1,0,0,1-1,1H17V18.073a5,5,0,0,0-10,0v3.934H3a1,1,0,0,1-1-1V11.19a1.008,1.008,0,0,1,.293-.707L9.878,2.9a3.008,3.008,0,0,1,4.244,0l7.585,7.586A1.008,1.008,0,0,1,22,11.19Z"/></symbol>
<symbol id="plant-line" viewBox="0 0 24 24"><path d="m22.271,15.156c-4.394-.756-7.427,1.354-9.271,3.768v-4.169c.197-.109.382-.242.536-.412.637-.706,1.074-1.454,1.296-2.207.82.138,1.633.054,2.259-.071.571-.114,1.069-.468,1.367-.972.302-.511.372-1.127.192-1.692-.173-.549-.462-1.248-.929-1.876.467-.628.756-1.327.929-1.876.18-.565.109-1.182-.192-1.693-.298-.503-.796-.858-1.366-.971-.625-.125-1.434-.208-2.246-.074-.215-.755-.652-1.501-1.31-2.23-.781-.867-2.291-.868-3.073,0-.657.729-1.094,1.475-1.309,2.229-.814-.133-1.622-.05-2.245.074-.571.114-1.07.468-1.367.972-.301.51-.372,1.127-.193,1.691.173.546.46,1.241.922,1.867-.462.625-.749,1.32-.921,1.866-.179.565-.109,1.182.192,1.692.298.504.796.858,1.368.972.625.125,1.436.208,2.253.072.22.759.659,1.514,1.301,2.226.154.171.339.303.536.413v4.142c-1.847-2.399-4.874-4.485-9.246-3.741-1.066.182-1.812,1.126-1.699,2.15.208,1.893,1.039,3.427,2.469,4.561,2.318,1.839,5.687,2.161,7.763,2.161.841,0,1.464-.052,1.726-.079.262.026.884.079,1.725.079,2.077,0,5.446-.322,7.764-2.161,1.43-1.134,2.261-2.668,2.469-4.561.112-1.024-.634-1.969-1.699-2.15Zm-11.76-5.219c-.157-.093-.333-.14-.51-.14-.165,0-.33.041-.479.122-.708.388-1.695.269-2.221.165l-.044-.1c.168-.531.48-1.258,1.012-1.7.229-.19.361-.472.361-.769s-.132-.579-.361-.769c-.532-.442-.844-1.169-1.012-1.7,0,0,.044-.099.044-.099.524-.105,1.51-.222,2.221.165.296.162.652.164.949.005.297-.158.495-.455.526-.789.01-.111.024-.255.006-.412.028-.59.346-1.227.948-1.896h.101c.63.7.949,1.365.949,1.979v.234c0,.353.186.68.489.86.305.181.681.187.989.018.711-.387,1.697-.269,2.221-.165,0,0,.044.1.045.1-.169.535-.483,1.265-1.021,1.707-.23.19-.364.473-.364.772s.134.583.365.772c.536.441.851,1.171,1.02,1.706,0,0-.044.1-.044.1-.524.104-1.511.223-2.222-.164-.31-.169-.686-.162-.989.018s-.489.507-.489.86v.182c0,.787-.516,1.524-.949,2.004h-.102c-.433-.48-.949-1.218-.949-2.004v-.203c0-.353-.186-.68-.49-.86Zm-6.748,10.361c-1.007-.801-1.57-1.851-1.672-3.171.502-.085.979-.125,1.431-.125,4.07,0,6.184,3.203,7.055,5.021-1.758.035-4.861-.174-6.813-1.725Zm16.5,0c-1.952,1.551-5.064,1.761-6.812,1.725.97-2.021,3.485-5.763,8.532-4.935-.149,1.359-.712,2.409-1.72,3.21Zm-8.262-11.285c-.828,0-1.5-.672-1.5-1.5s.672-1.5,1.5-1.5,1.5.672,1.5,1.5-.672,1.5-1.5,1.5Z"/></symbol>
<symbol id="calendar-line" viewBox="0 0 24 24"><path d="M19,2H18V1a1,1,0,0,0-2,0V2H8V1A1,1,0,0,0,6,1V2H5A5.006,5.006,0,0,0,0,7V19a5.006,5.006,0,0,0,5,5H19a5.006,5.006,0,0,0,5-5V7A5.006,5.006,0,0,0,19,2ZM2,7A3,3,0,0,1,5,4H19a3,3,0,0,1,3,3V8H2ZM19,22H5a3,3,0,0,1-3-3V10H22v9A3,3,0,0,1,19,22Z"/><circle cx="12" cy="15" r="1.5"/><circle cx="7" cy="15" r="1.5"/><circle cx="17" cy="15" r="1.5"/><symbol>
<symbol id="bell-line" viewBox="0 0 24 24"><path d="M22.555,13.662l-1.9-6.836A9.321,9.321,0,0,0,2.576,7.3L1.105,13.915A5,5,0,0,0,5.986,20H7.1a5,5,0,0,0,9.8,0h.838a5,5,0,0,0,4.818-6.338ZM12,22a3,3,0,0,1-2.816-2h5.632A3,3,0,0,1,12,22Zm8.126-5.185A2.977,2.977,0,0,1,17.737,18H5.986a3,3,0,0,1-2.928-3.651l1.47-6.616a7.321,7.321,0,0,1,14.2-.372l1.9,6.836A2.977,2.977,0,0,1,20.126,16.815Z"/></symbol>
<symbol id="menu-line" viewBox="0 0 24 24"><path d="m19,1H5C2.243,1,0,3.243,0,6v12c0,2.757,2.243,5,5,5h14c2.757,0,5-2.243,5-5V6c0-2.757-2.243-5-5-5Zm3,17c0,1.654-1.346,3-3,3H5c-1.654,0-3-1.346-3-3V6c0-1.654,1.346-3,3-3h14c1.654,0,3,1.346,3,3v12Zm-3-11c0,.552-.448,1-1,1h-7c-.552,0-1-.448-1-1s.448-1,1-1h7c.552,0,1,.448,1,1Zm-11,0c0,.828-.672,1.5-1.5,1.5s-1.5-.672-1.5-1.5.672-1.5,1.5-1.5,1.5.672,1.5,1.5Zm11,5c0,.552-.448,1-1,1h-7c-.552,0-1-.448-1-1s.448-1,1-1h7c.552,0,1,.448,1,1Zm-11,0c0,.828-.672,1.5-1.5,1.5s-1.5-.672-1.5-1.5.672-1.5,1.5-1.5,1.5.672,1.5,1.5Zm11,5c0,.552-.448,1-1,1h-7c-.552,0-1-.448-1-1s.448-1,1-1h7c.552,0,1,.448,1,1Zm-11,0c0,.828-.672,1.5-1.5,1.5s-1.5-.672-1.5-1.5.672-1.5,1.5-1.5,1.5.672,1.5,1.5Z"/></symbol>
<symbol id="login-line" viewBox="0 0 24 24"><path d="M18.9,0H5.1A5.055,5.055,0,0,0,0,5V8A1,1,0,0,0,2,8V5A3.054,3.054,0,0,1,5.1,2H18.9A3.054,3.054,0,0,1,22,5V19a3.054,3.054,0,0,1-3.1,3H5.1A3.054,3.054,0,0,1,2,19V16a1,1,0,0,0-2,0v3a5.055,5.055,0,0,0,5.1,5H18.9A5.055,5.055,0,0,0,24,19V5A5.055,5.055,0,0,0,18.9,0Z"/><path d="M3,12a1,1,0,0,0,1,1H4l13.188-.03-4.323,4.323a1,1,0,1,0,1.414,1.414l4.586-4.586a3,3,0,0,0,0-4.242L14.281,5.293a1,1,0,0,0-1.414,1.414l4.262,4.263L4,11A1,1,0,0,0,3,12Z"/></symbol>

<!-- Other -->
<symbol id="user-line" viewBox="0 0 24 24"><path d="M12,12A6,6,0,1,0,6,6,6.006,6.006,0,0,0,12,12ZM12,2A4,4,0,1,1,8,6,4,4,0,0,1,12,2Z"/><path d="M12,14a9.01,9.01,0,0,0-9,9,1,1,0,0,0,2,0,7,7,0,0,1,14,0,1,1,0,0,0,2,0A9.01,9.01,0,0,0,12,14Z"/></symbol>
<symbol id="chevron-line" viewBox="0 0 24 24"><path d="M15.4,9.88,10.81,5.29a1,1,0,0,0-1.41,0,1,1,0,0,0,0,1.42L14,11.29a1,1,0,0,1,0,1.42L9.4,17.29a1,1,0,0,0,1.41,1.42l4.59-4.59A3,3,0,0,0,15.4,9.88Z"/></symbol>
<symbol id="search-line" viewBox="0 0 24 24"><path d="M23.707,22.293l-5.969-5.969a10.016,10.016,0,1,0-1.414,1.414l5.969,5.969a1,1,0,0,0,1.414-1.414ZM10,18a8,8,0,1,1,8-8A8.009,8.009,0,0,1,10,18Z"/></symbol>
<symbol id="compose-line" viewBox="0 0 24 24"><path d="M18.656.93,6.464,13.122A4.966,4.966,0,0,0,5,16.657V18a1,1,0,0,0,1,1H7.343a4.966,4.966,0,0,0,3.535-1.464L23.07,5.344a3.125,3.125,0,0,0,0-4.414A3.194,3.194,0,0,0,18.656.93Zm3,3L9.464,16.122A3.02,3.02,0,0,1,7.343,17H7v-.343a3.02,3.02,0,0,1,.878-2.121L20.07,2.344a1.148,1.148,0,0,1,1.586,0A1.123,1.123,0,0,1,21.656,3.93Z"/><path d="M23,8.979a1,1,0,0,0-1,1V15H18a3,3,0,0,0-3,3v4H5a3,3,0,0,1-3-3V5A3,3,0,0,1,5,2h9.042a1,1,0,0,0,0-2H5A5.006,5.006,0,0,0,0,5V19a5.006,5.006,0,0,0,5,5H16.343a4.968,4.968,0,0,0,3.536-1.464l2.656-2.658A4.968,4.968,0,0,0,24,16.343V9.979A1,1,0,0,0,23,8.979ZM18.465,21.122a2.975,2.975,0,0,1-1.465.8V18a1,1,0,0,1,1-1h3.925a3.016,3.016,0,0,1-.8,1.464Z"/></symbol>
<symbol id="link-line" viewBox="0 0 24 24"><path d="M13.845,17.267l-3.262,3.262A5.028,5.028,0,0,1,3.472,13.42l3.262-3.265A1,1,0,0,0,5.319,8.741L2.058,12.006A7.027,7.027,0,0,0,12,21.943l3.262-3.262a1,1,0,0,0-1.414-1.414Z"/><path d="M21.944,2.061A6.979,6.979,0,0,0,16.975,0h0a6.983,6.983,0,0,0-4.968,2.057L8.74,5.32a1,1,0,0,0,1.414,1.415l3.265-3.262A4.993,4.993,0,0,1,16.973,2h0a5.028,5.028,0,0,1,3.554,8.583l-3.262,3.262A1,1,0,1,0,18.68,15.26L21.942,12A7.037,7.037,0,0,0,21.944,2.061Z"/><path d="M14.293,8.293l-6,6a1,1,0,1,0,1.414,1.414l6-6a1,1,0,0,0-1.414-1.414Z"/></symbol>
<symbol id="unlink-line" viewBox="0 0 24 24"><path d="M4.262,9.772c.391-.389,1.023-.388,1.414,.002,.391,.391,.389,1.024-.002,1.415l-2.197,2.189c-.952,.952-1.477,2.218-1.477,3.564,0,1.346,.524,2.612,1.477,3.564,.955,.956,2.223,1.486,3.569,1.493,1.335,0,2.616-.518,3.558-1.458l2.208-2.215c.39-.391,1.022-.393,1.414-.002,.391,.39,.393,1.023,.002,1.415l-2.209,2.216c-1.32,1.32-3.113,2.045-4.983,2.045-1.877-.01-3.643-.749-4.973-2.079C.732,20.591,0,18.823,0,16.943c0-1.881,.732-3.649,2.063-4.98l2.198-2.191Zm4.267,4.284l-.801,.801c-.391,.391-.391,1.023,0,1.414,.195,.195,.451,.293,.707,.293s.512-.098,.707-.293l.801-.801c.391-.391,.391-1.023,0-1.414s-1.023-.391-1.414,0ZM.293,.293c.391-.391,1.023-.391,1.414,0L7.726,6.312l.003-.005L11.981,2.062C13.312,.732,15.079,0,16.96,0s3.648,.732,4.978,2.062c1.33,1.33,2.062,3.098,2.062,4.979s-.732,3.648-2.062,4.978l-4.245,4.253-.005,.003,6.019,6.019c.391,.391,.391,1.023,0,1.414-.195,.195-.451,.293-.707,.293s-.512-.098-.707-.293L.293,1.707c-.391-.391-.391-1.023,0-1.414ZM11.999,10.585l2.859-2.859c.391-.391,1.023-.391,1.414,0s.391,1.024,0,1.414l-2.859,2.859,2.862,2.862,.002-.003,4.246-4.253c.952-.952,1.477-2.218,1.477-3.564s-.524-2.612-1.477-3.564-2.218-1.476-3.563-1.476-2.612,.524-3.565,1.477l-4.253,4.246-.003,.002,2.86,2.86Z"/></symbol>

<!-- Settings -->
<symbol id="user-edit-line" viewBox="0 0 24 24"><path d="M9,12c3.309,0,6-2.691,6-6S12.309,0,9,0,3,2.691,3,6s2.691,6,6,6Zm0-10c2.206,0,4,1.794,4,4s-1.794,4-4,4-4-1.794-4-4,1.794-4,4-4Zm1.75,14.22c-.568-.146-1.157-.22-1.75-.22-3.86,0-7,3.14-7,7,0,.552-.448,1-1,1s-1-.448-1-1c0-4.962,4.038-9,9-9,.762,0,1.519,.095,2.25,.284,.535,.138,.856,.683,.719,1.218-.137,.535-.68,.856-1.218,.719Zm12.371-4.341c-1.134-1.134-3.11-1.134-4.243,0l-6.707,6.707c-.755,.755-1.172,1.76-1.172,2.829v1.586c0,.552,.448,1,1,1h1.586c1.069,0,2.073-.417,2.828-1.172l6.707-6.707c.567-.567,.879-1.32,.879-2.122s-.312-1.555-.878-2.121Zm-1.415,2.828l-6.708,6.707c-.377,.378-.879,.586-1.414,.586h-.586v-.586c0-.534,.208-1.036,.586-1.414l6.708-6.707c.377-.378,1.036-.378,1.414,0,.189,.188,.293,.439,.293,.707s-.104,.518-.293,.707Z"/></symbol>
<symbol id="password-line" viewBox="0 0 24 24"><path d="m15 17a1 1 0 0 1 -1 1h-4a1 1 0 0 1 0-2h4a1 1 0 0 1 1 1zm-.293-9.707a1 1 0 0 0 -1.414 0l-1.293 1.293-1.293-1.293a1 1 0 1 0 -1.414 1.414l1.293 1.293-1.293 1.293a1 1 0 1 0 1.414 1.414l1.293-1.293 1.293 1.293a1 1 0 0 0 1.414-1.414l-1.293-1.293 1.293-1.293a1 1 0 0 0 0-1.414zm7.293 8.707h-4a1 1 0 0 0 0 2h4a1 1 0 0 0 0-2zm-.586-6 1.293-1.293a1 1 0 1 0 -1.414-1.414l-1.293 1.293-1.293-1.293a1 1 0 1 0 -1.414 1.414l1.293 1.293-1.293 1.293a1 1 0 1 0 1.414 1.414l1.293-1.293 1.293 1.293a1 1 0 0 0 1.414-1.414zm-15.414 6h-4a1 1 0 0 0 0 2h4a1 1 0 0 0 0-2zm.707-8.707a1 1 0 0 0 -1.414 0l-1.293 1.293-1.293-1.293a1 1 0 1 0 -1.414 1.414l1.293 1.293-1.293 1.293a1 1 0 1 0 1.414 1.414l1.293-1.293 1.293 1.293a1 1 0 1 0 1.414-1.414l-1.293-1.293 1.293-1.293a1 1 0 0 0 0-1.414z"/></symbol>
<symbol id="palette-line" viewBox="0 0 24 24"><path d="M17.115,8.05A1.5,1.5,0,1,0,18.95,9.115,1.5,1.5,0,0,0,17.115,8.05Z"/><path d="M12.115,5.05A1.5,1.5,0,1,0,13.95,6.115,1.5,1.5,0,0,0,12.115,5.05Z"/><path d="M7.115,8.05A1.5,1.5,0,1,0,8.95,9.115,1.5,1.5,0,0,0,7.115,8.05Z"/><path d="M7.115,14.05A1.5,1.5,0,1,0,8.95,15.115,1.5,1.5,0,0,0,7.115,14.05Z"/><path d="M12.5.007A12,12,0,0,0,.083,12a12.014,12.014,0,0,0,12,12c.338,0,.67-.022,1-.05a1,1,0,0,0,.916-1l-.032-3.588A3.567,3.567,0,0,1,20.057,16.8l.1.1a1.912,1.912,0,0,0,1.769.521,1.888,1.888,0,0,0,1.377-1.177A11.924,11.924,0,0,0,24.08,11.7,12.155,12.155,0,0,0,12.5.007Zm8.982,15.4-.014-.014a5.567,5.567,0,0,0-9.5,3.985L11.992,22a10,10,0,0,1,.09-20c.117,0,.235,0,.353.006a10.127,10.127,0,0,1,9.645,9.743A9.892,9.892,0,0,1,21.485,15.4Z"/></symbol>
<symbol id="alarm-warning-line" viewBox="0 0 24 24"><path d="m21,18.126v-5.126c0-4.963-4.037-9-9-9S3,8.037,3,13v5.126c-1.724.445-3,2.013-3,3.874,0,1.103.897,2,2,2h20c1.103,0,2-.897,2-2,0-1.861-1.276-3.429-3-3.874ZM12,6c3.859,0,7,3.141,7,7v5H5v-5c0-3.859,3.141-7,7-7ZM2,22c0-1.103.897-2,2-2h16c1.103,0,2,.897,2,2H2ZM20.797,6.211c-.393-.389-.396-1.021-.008-1.414l1.5-1.517c.388-.393,1.021-.396,1.414-.008.393.389.396,1.021.008,1.414l-1.5,1.517c-.195.198-.453.297-.711.297-.254,0-.508-.097-.703-.289Zm-4.185-4.171l.777-1.5c.254-.492.859-.682,1.348-.428.49.254.682.857.428,1.348l-.777,1.5c-.178.344-.527.54-.889.54-.155,0-.312-.036-.459-.112-.49-.254-.682-.857-.428-1.348ZM.289,4.687c-.389-.393-.385-1.025.008-1.414.392-.389,1.027-.385,1.414.008l1.5,1.517c.389.393.385,1.025-.008,1.414-.194.192-.449.289-.703.289-.258,0-.516-.099-.711-.297l-1.5-1.517ZM4.835,1.46c-.254-.49-.062-1.094.428-1.348.487-.254,1.093-.064,1.348.428l.777,1.5c.254.49.062,1.094-.428,1.348-.146.076-.304.112-.459.112-.361,0-.711-.196-.889-.54l-.777-1.5Zm3.165,11.54c0-2.206,1.794-4,4-4,.553,0,1,.447,1,1s-.447,1-1,1c-1.103,0-2,.897-2,2,0,.553-.447,1-1,1s-1-.447-1-1Z"/></symbol>
<symbol id="history-line" viewBox="0 0 24 24"><path d="M12,0A11.972,11.972,0,0,0,4,3.073V1A1,1,0,0,0,2,1V4A3,3,0,0,0,5,7H8A1,1,0,0,0,8,5H5a.854.854,0,0,1-.1-.021A9.987,9.987,0,1,1,2,12a1,1,0,0,0-2,0A12,12,0,1,0,12,0Z"/><path d="M12,6a1,1,0,0,0-1,1v5a1,1,0,0,0,.293.707l3,3a1,1,0,0,0,1.414-1.414L13,11.586V7A1,1,0,0,0,12,6Z"/></symbol>
<symbol id="gdpr-line" viewBox="0 0 24 24"><path d="m12,10c-1.93,0-3.5,1.57-3.5,3.5s1.57,3.5,3.5,3.5,3.5-1.57,3.5-3.5-1.57-3.5-3.5-3.5Zm0,5c-.827,0-1.5-.673-1.5-1.5s.673-1.5,1.5-1.5,1.5.673,1.5,1.5-.673,1.5-1.5,1.5Zm7.949-9.464l-3.484-3.486c-1.323-1.322-3.081-2.05-4.95-2.05h-4.515C4.243,0,2,2.243,2,5v14c0,2.757,2.243,5,5,5h10c2.757,0,5-2.243,5-5v-8.515c0-1.871-.729-3.628-2.051-4.95Zm-1.414,1.415c.318.317.587.67.805,1.05h-4.341c-.552,0-1-.449-1-1V2.659c.38.218.733.487,1.051.805l3.484,3.486Zm-9.363,15.05c.413-1.164,1.524-2,2.828-2s2.415.836,2.828,2h-5.656Zm10.828-3c0,1.654-1.346,3-3,3h-.101c-.465-2.279-2.485-4-4.899-4s-4.435,1.721-4.899,4h-.101c-1.654,0-3-1.346-3-3V5c0-1.654,1.346-3,3-3h4.515c.163,0,.325.008.485.023v4.977c0,1.654,1.346,3,3,3h4.977c.015.16.023.322.023.485v8.515Z"/></symbol>
<symbol id="delete-bin-line" viewBox="0 0 24 24"><path d="M21,4H17.9A5.009,5.009,0,0,0,13,0H11A5.009,5.009,0,0,0,6.1,4H3A1,1,0,0,0,3,6H4V19a5.006,5.006,0,0,0,5,5h6a5.006,5.006,0,0,0,5-5V6h1a1,1,0,0,0,0-2ZM11,2h2a3.006,3.006,0,0,1,2.829,2H8.171A3.006,3.006,0,0,1,11,2Zm7,17a3,3,0,0,1-3,3H9a3,3,0,0,1-3-3V6H18Z"/><path d="M10,18a1,1,0,0,0,1-1V11a1,1,0,0,0-2,0v6A1,1,0,0,0,10,18Z"/><path d="M14,18a1,1,0,0,0,1-1V11a1,1,0,0,0-2,0v6A1,1,0,0,0,14,18Z"/></symbol>

<!-- Help -->
<symbol id="kb-line" viewBox="0 0 24 24"><path d="m16 6a1 1 0 0 1 0 2h-8a1 1 0 0 1 0-2zm7.707 17.707a1 1 0 0 1 -1.414 0l-2.407-2.407a4.457 4.457 0 0 1 -2.386.7 4.5 4.5 0 1 1 4.5-4.5 4.457 4.457 0 0 1 -.7 2.386l2.407 2.407a1 1 0 0 1 0 1.414zm-6.207-3.707a2.5 2.5 0 1 0 -2.5-2.5 2.5 2.5 0 0 0 2.5 2.5zm-4.5 2h-6a3 3 0 0 1 -3-3v-14a3 3 0 0 1 3-3h12a1 1 0 0 1 1 1v8a1 1 0 0 0 2 0v-8a3 3 0 0 0 -3-3h-12a5.006 5.006 0 0 0 -5 5v14a5.006 5.006 0 0 0 5 5h6a1 1 0 0 0 0-2z"/></symbol>
<symbol id="question-line" viewBox="0 0 24 24"><path d="M12,16c.828,0,1.5,.672,1.5,1.5s-.672,1.5-1.5,1.5-1.5-.672-1.5-1.5,.672-1.5,1.5-1.5Zm1-2c0-.561,.408-1.225,.928-1.512,1.5-.827,2.307-2.523,2.009-4.222-.283-1.614-1.608-2.938-3.221-3.22-1.178-.205-2.379,.11-3.287,.873-.908,.763-1.429,1.879-1.429,3.064,0,.552,.448,1,1,1s1-.448,1-1c0-.592,.261-1.151,.715-1.533,.461-.388,1.049-.542,1.656-.435,.787,.138,1.458,.809,1.596,1.596,.153,.87-.241,1.704-1.004,2.125-1.156,.637-1.963,1.979-1.963,3.264,0,.553,.448,1,1,1s1-.447,1-1Zm11,5V5c0-2.757-2.243-5-5-5H5C2.243,0,0,2.243,0,5v14c0,2.757,2.243,5,5,5h14c2.757,0,5-2.243,5-5ZM19,2c1.654,0,3,1.346,3,3v14c0,1.654-1.346,3-3,3H5c-1.654,0-3-1.346-3-3V5c0-1.654,1.346-3,3-3h14Z"/></symbol>
<symbol id="add-question-line" viewBox="0 0 24 24"><path d="M17,12c0,.553-.448,1-1,1h-3v3c0,.553-.448,1-1,1s-1-.447-1-1v-3h-3c-.552,0-1-.447-1-1s.448-1,1-1h3v-3c0-.553,.448-1,1-1s1,.447,1,1v3h3c.552,0,1,.447,1,1Zm7-7v14c0,2.757-2.243,5-5,5H5c-2.757,0-5-2.243-5-5V5C0,2.243,2.243,0,5,0h14c2.757,0,5,2.243,5,5Zm-2,0c0-1.654-1.346-3-3-3H5c-1.654,0-3,1.346-3,3v14c0,1.654,1.346,3,3,3h14c1.654,0,3-1.346,3-3V5Z"/></symbol>

<!-- Menu -->
<symbol id="settings-line" viewBox="0 0 24 24"><path d="M12,8a4,4,0,1,0,4,4A4,4,0,0,0,12,8Zm0,6a2,2,0,1,1,2-2A2,2,0,0,1,12,14Z"/><path d="M21.294,13.9l-.444-.256a9.1,9.1,0,0,0,0-3.29l.444-.256a3,3,0,1,0-3-5.2l-.445.257A8.977,8.977,0,0,0,15,3.513V3A3,3,0,0,0,9,3v.513A8.977,8.977,0,0,0,6.152,5.159L5.705,4.9a3,3,0,0,0-3,5.2l.444.256a9.1,9.1,0,0,0,0,3.29l-.444.256a3,3,0,1,0,3,5.2l.445-.257A8.977,8.977,0,0,0,9,20.487V21a3,3,0,0,0,6,0v-.513a8.977,8.977,0,0,0,2.848-1.646l.447.258a3,3,0,0,0,3-5.2Zm-2.548-3.776a7.048,7.048,0,0,1,0,3.75,1,1,0,0,0,.464,1.133l1.084.626a1,1,0,0,1-1,1.733l-1.086-.628a1,1,0,0,0-1.215.165,6.984,6.984,0,0,1-3.243,1.875,1,1,0,0,0-.751.969V21a1,1,0,0,1-2,0V19.748a1,1,0,0,0-.751-.969A6.984,6.984,0,0,1,7.006,16.9a1,1,0,0,0-1.215-.165l-1.084.627a1,1,0,1,1-1-1.732l1.084-.626a1,1,0,0,0,.464-1.133,7.048,7.048,0,0,1,0-3.75A1,1,0,0,0,4.79,8.992L3.706,8.366a1,1,0,0,1,1-1.733l1.086.628A1,1,0,0,0,7.006,7.1a6.984,6.984,0,0,1,3.243-1.875A1,1,0,0,0,11,4.252V3a1,1,0,0,1,2,0V4.252a1,1,0,0,0,.751.969A6.984,6.984,0,0,1,16.994,7.1a1,1,0,0,0,1.215.165l1.084-.627a1,1,0,1,1,1,1.732l-1.084.626A1,1,0,0,0,18.746,10.125Z"/></symbol>
<symbol id="help-line" viewBox="0 0 24 24"><path d="M21.155,19.741a11.954,11.954,0,0,0,0-15.482l.86-.86A1,1,0,0,0,20.6,1.985l-.86.86a11.954,11.954,0,0,0-15.482,0l-.86-.86A1,1,0,0,0,1.985,3.4l.86.86a11.954,11.954,0,0,0,0,15.482l-.86.86A1,1,0,1,0,3.4,22.015l.86-.86a11.954,11.954,0,0,0,15.482,0l.86.86A1,1,0,0,0,22.015,20.6ZM22,12a9.949,9.949,0,0,1-2.262,6.324l-3.571-3.571a4.966,4.966,0,0,0,0-5.506l3.571-3.571A9.949,9.949,0,0,1,22,12ZM9,12a3,3,0,1,1,3,3A3,3,0,0,1,9,12ZM12,2a9.949,9.949,0,0,1,6.324,2.262L14.753,7.833a4.966,4.966,0,0,0-5.506,0L5.676,4.262A9.949,9.949,0,0,1,12,2ZM2,12A9.949,9.949,0,0,1,4.262,5.676L7.833,9.247a4.966,4.966,0,0,0,0,5.506L4.262,18.324A9.949,9.949,0,0,1,2,12ZM12,22a9.949,9.949,0,0,1-6.324-2.262l3.571-3.571a4.966,4.966,0,0,0,5.506,0l3.571,3.571A9.949,9.949,0,0,1,12,22Z"/></symbol>
<symbol id="about-line" viewBox="0 0 24 24"><path d="M12,0A12,12,0,1,0,24,12,12.013,12.013,0,0,0,12,0Zm0,22A10,10,0,1,1,22,12,10.011,10.011,0,0,1,12,22Z"/><path d="M12,10H11a1,1,0,0,0,0,2h1v6a1,1,0,0,0,2,0V12A2,2,0,0,0,12,10Z"/><circle cx="12" cy="6.5" r="1.5"/></symbol>
<symbol id="charity-line" viewBox="0 0 24 24"><path d="M8.965,24H4a4,4,0,0,1-4-4V15a4,4,0,0,1,4-4h8.857a3.144,3.144,0,0,1,2.69,1.519l3.217-3.535a3.01,3.01,0,0,1,4.254-.2,3.022,3.022,0,0,1,.217,4.23l-6.8,7.637A10.012,10.012,0,0,1,8.965,24ZM4,13a2,2,0,0,0-2,2v5a2,2,0,0,0,2,2H8.965a8.005,8.005,0,0,0,5.972-2.678l6.805-7.638a1.015,1.015,0,0,0-.072-1.421A1.029,1.029,0,0,0,20.942,10a1,1,0,0,0-.7.329L15.816,15.2A3.158,3.158,0,0,1,13.3,17.252l-5.161.738a1,1,0,0,1-.284-1.98l5.162-.737A1.142,1.142,0,0,0,12.857,13Zm7-3.926a1.986,1.986,0,0,1-1.247-.436C8.041,7.264,6,5.2,6,3.2A3.109,3.109,0,0,1,9,0a2.884,2.884,0,0,1,2,.817A2.884,2.884,0,0,1,13,0a3.109,3.109,0,0,1,3,3.2c0,2-2.041,4.064-3.754,5.439A1.986,1.986,0,0,1,11,9.074ZM9,2A1.115,1.115,0,0,0,8,3.2c0,.9,1.151,2.39,3.006,3.879C12.849,5.59,14,4.1,14,3.2A1.115,1.115,0,0,0,13,2a1.115,1.115,0,0,0-1,1.2,1,1,0,0,1-2,0A1.115,1.115,0,0,0,9,2Z"/></symbol>
<symbol id="logout-line" viewBox="0 0 24 24"><path d="M11.476,15a1,1,0,0,0-1,1v3a3,3,0,0,1-3,3H5a3,3,0,0,1-3-3V5A3,3,0,0,1,5,2H7.476a3,3,0,0,1,3,3V8a1,1,0,0,0,2,0V5a5.006,5.006,0,0,0-5-5H5A5.006,5.006,0,0,0,0,5V19a5.006,5.006,0,0,0,5,5H7.476a5.006,5.006,0,0,0,5-5V16A1,1,0,0,0,11.476,15Z"/><path d="M22.867,9.879,18.281,5.293a1,1,0,1,0-1.414,1.414l4.262,4.263L6,11a1,1,0,0,0,0,2H6l15.188-.031-4.323,4.324a1,1,0,1,0,1.414,1.414l4.586-4.586A3,3,0,0,0,22.867,9.879Z"/></symbol>

<!-- Erors -->
<symbol id="cloud-off-line" viewBox="0 0 24 24"><path fill="none" d="M0 0h24v24H0z"></path><path d="M3.51472 2.10051L22.6066 21.1924L21.1924 22.6066L19.1782 20.5924C18.503 20.8556 17.7684 21 17 21H7C3.68629 21 1 18.3137 1 15C1 12.3846 2.67346 10.16 5.00804 9.33857C5.0027 9.22639 5 9.11351 5 9C5 8.22228 5.12683 7.47418 5.36094 6.77527L2.10051 3.51472L3.51472 2.10051ZM7 9C7 9.08147 7.00193 9.16263 7.00578 9.24344L7.07662 10.7309L5.67183 11.2252C4.0844 11.7837 3 13.2889 3 15C3 17.2091 4.79086 19 7 19H17C17.1858 19 17.3687 18.9873 17.5478 18.9628L7.03043 8.44519C7.01032 8.62736 7 8.81247 7 9ZM12 2C15.866 2 19 5.13401 19 9C19 9.11351 18.9973 9.22639 18.992 9.33857C21.3265 10.16 23 12.3846 23 15C23 16.0883 22.7103 17.1089 22.2037 17.9889L20.7111 16.4955C20.8974 16.0335 21 15.5287 21 15C21 12.79 19.21 11 17 11C16.4711 11 15.9661 11.1027 15.5039 11.2892L14.0111 9.7964C14.8912 9.28978 15.9118 9 17 9C17 6.23858 14.7614 4 12 4C10.9295 4 9.93766 4.33639 9.12428 4.90922L7.69418 3.48056C8.88169 2.55284 10.3763 2 12 2Z"></path></symbol>
<symbol id="spy-line" viewBox="0 0 24 24"><path fill="none" d="M0 0h24v24H0z"></path><path d="M17 13C19.2091 13 21 14.7909 21 17C21 19.2091 19.2091 21 17 21C14.7909 21 13 19.2091 13 17H11C11 19.2091 9.20914 21 7 21C4.79086 21 3 19.2091 3 17C3 14.7909 4.79086 13 7 13C8.48052 13 9.77317 13.8043 10.4648 14.9999H13.5352C14.2268 13.8043 15.5195 13 17 13ZM7 15C5.89543 15 5 15.8954 5 17C5 18.1046 5.89543 19 7 19C8.10457 19 9 18.1046 9 17C9 15.8954 8.10457 15 7 15ZM17 15C15.8954 15 15 15.8954 15 17C15 18.1046 15.8954 19 17 19C18.1046 19 19 18.1046 19 17C19 15.8954 18.1046 15 17 15ZM16 3C18.2091 3 20 4.79086 20 7V10H22V12H2V10H4V7C4 4.79086 5.79086 3 8 3H16ZM16 5H8C6.94564 5 6 5.95 6 7V10H18V7C18 5.94564 17.05 5 16 5Z"></path></symbol>
<symbol id="cancel-circle-line" viewBox="0 0 24 24"><path d="M12,0A12,12,0,1,0,24,12,12.013,12.013,0,0,0,12,0Zm0,2a9.949,9.949,0,0,1,6.324,2.262L4.262,18.324A9.992,9.992,0,0,1,12,2Zm0,20a9.949,9.949,0,0,1-6.324-2.262L19.738,5.676A9.992,9.992,0,0,1,12,22Z"/></symbol>

  </defs>
</svg>